HIERARCHY
ROOT Bip001_Pelvis
{
  OFFSET 34.4345 95.6767 -26.8758
  CHANNELS 6 Xposition Yposition Zposition Zrotation Xrotation Yrotation
  JOINT Bip001_Spine
  {
    OFFSET 1.4188e-005 10.2191 -0.0116013
    CHANNELS 3 Zrotation Xrotation Yrotation
    JOINT Bip001_L_Thigh
    {
      OFFSET 11.0458 -10.2192 0.0116197
      CHANNELS 3 Zrotation Xrotation Yrotation
      JOINT Bip001_L_Calf
      {
        OFFSET -0.707118 -44.0221 0.360014
        CHANNELS 3 Zrotation Xrotation Yrotation
        JOINT Bip001_L_Foot
        {
          OFFSET -0.651902 -40.5938 -3.56146
          CHANNELS 3 Zrotation Xrotation Yrotation
          JOINT Bip001_L_Toe0
          {
            OFFSET 0.0530839 -10.2181 13.1504
            CHANNELS 3 Zrotation Xrotation Yrotation
            End Site
            {
              OFFSET -1.02532e-005 0 7.55606
            }
          }
        }
      }
    }
    JOINT Bip001_R_Thigh
    {
      OFFSET -11.0458 -10.2191 0.0115893
      CHANNELS 3 Zrotation Xrotation Yrotation
      JOINT Bip001_R_Calf
      {
        OFFSET 0.706994 -44.0221 0.35984
        CHANNELS 3 Zrotation Xrotation Yrotation
        JOINT Bip001_R_Foot
        {
          OFFSET 0.651786 -40.5938 -3.5613
          CHANNELS 3 Zrotation Xrotation Yrotation
          JOINT Bip001_R_Toe0
          {
            OFFSET -0.0531479 -10.2181 13.1504
            CHANNELS 3 Zrotation Xrotation Yrotation
            End Site
            {
              OFFSET -1.02894e-005 0 7.55606
            }
          }
        }
      }
    }
    JOINT Bip001_Spine1
    {
      OFFSET 1.87041e-005 14.5736 1.08638
      CHANNELS 3 Zrotation Xrotation Yrotation
      JOINT Bip001_Spine2
      {
        OFFSET 2.24614e-005 14.5058 -1.69078
        CHANNELS 3 Zrotation Xrotation Yrotation
        JOINT Bip001_Neck
        {
          OFFSET 2.20278e-005 15.3945 -0.489414
          CHANNELS 3 Zrotation Xrotation Yrotation
          JOINT Bip001_L_Clavicle
          {
            OFFSET 6.06036 -0.000579998 0.00836775
            CHANNELS 3 Zrotation Xrotation Yrotation
            JOINT Bip001_L_UpperArm
            {
              OFFSET 11.5509 -0.0600302 0.00193952
              CHANNELS 3 Zrotation Xrotation Yrotation
              JOINT Bip001_L_Forearm
              {
                OFFSET 25.9523 0.0806089 -2.15551
                CHANNELS 3 Zrotation Xrotation Yrotation
                JOINT Bip001_L_Hand
                {
                  OFFSET 32.2475 0.153767 1.63968
                  CHANNELS 3 Zrotation Xrotation Yrotation
                  JOINT Bip001_L_Finger0
                  {
                    OFFSET 6.04639 -2.20976 5.90322
                    CHANNELS 3 Zrotation Xrotation Yrotation
                    End Site
                    {
                      OFFSET 4.22375 -1.43895 0.606485
                    }
                  }
                  JOINT Bip001_L_Finger1
                  {
                    OFFSET 11.0826 -0.704819 -0.198153
                    CHANNELS 3 Zrotation Xrotation Yrotation
                    End Site
                    {
                      OFFSET 6.20027 -0.397518 -0.0787166
                    }
                  }
                }
              }
            }
          }
          JOINT Bip001_R_Clavicle
          {
            OFFSET -6.06037 -0.000563197 0.00835105
            CHANNELS 3 Zrotation Xrotation Yrotation
            JOINT Bip001_R_UpperArm
            {
              OFFSET -11.5509 -0.0599978 0.00190698
              CHANNELS 3 Zrotation Xrotation Yrotation
              JOINT Bip001_R_Forearm
              {
                OFFSET -25.9523 0.0806822 -2.15589
                CHANNELS 3 Zrotation Xrotation Yrotation
                JOINT Bip001_R_Hand
                {
                  OFFSET -32.2475 0.153859 1.63989
                  CHANNELS 3 Zrotation Xrotation Yrotation
                  JOINT Bip001_R_Finger0
                  {
                    OFFSET -6.04641 -2.20976 5.90317
                    CHANNELS 3 Zrotation Xrotation Yrotation
                    End Site
                    {
                      OFFSET -4.22376 -1.43895 0.60647
                    }
                  }
                  JOINT Bip001_R_Finger1
                  {
                    OFFSET -11.0826 -0.704794 -0.198182
                    CHANNELS 3 Zrotation Xrotation Yrotation
                    End Site
                    {
                      OFFSET -6.20028 -0.397504 -0.0787333
                    }
                  }
                }
              }
            }
          }
          JOINT Bip001_Head
          {
            OFFSET 1.09673e-005 11.2744 2.05948
            CHANNELS 3 Zrotation Xrotation Yrotation
            End Site
            {
              OFFSET 2.89576e-005 20.8808 -2.77728e-005
            }
          }
        }
      }
    }
  }
}
MOTION
Frames:	15
Frame Time:	0.04
32.022 95.7535 -29.8242 0.987912 -2.81536 -3.26612 0.167449 2.41496 -0.776924 4.6589 2.1076 12.4916 0.403408 5.18361 1.07979 -0.860505 -3.97822 0.0155588 0.814597 -3.74992 -0.357382 -5.62101 -2.68036 0.411146 0.664632 12.2631 0.096984 -5.15718 -10.0172 3.09362 2.31022 -7.84258 2.47292 0.368259 4.83082 -1.56301 0.368259 4.83086 -1.56301 3.63482 -3.45133 -0.374145 -26.5439 6.01257 -5.22229 -46.5449 41.6411 -5.09435 14.3553 -5.02948 -31.0003 11.843 0.468829 -6.34157 3.18055e-015 1.59028e-015 -3.18055e-015 1.76556e-031 6.36111e-015 -1.59028e-015 23.0276 11.4282 19.968 65.4084 38.7375 -14.6435 -18.5489 11.2414 7.35273 12.5578 -6.83025 3.71392 7.95139e-016 -3.18055e-015 -7.95139e-016 1.59028e-015 3.18056e-015 -7.95139e-016 -3.76351 1.52293 1.4902 
32.0463 95.744 -29.9108 1.01306 -2.78531 -3.53694 0.202462 2.39181 -0.869244 4.52937 2.1696 12.5227 0.376891 5.03792 1.25093 -0.589681 -3.80657 0.0155557 0.819157 -3.97694 -0.281143 -5.71708 -2.8313 0.723913 0.687253 12.3015 0.0695927 -5.07401 -10.0424 3.18613 2.31372 -7.86419 2.49176 0.441824 4.78022 -1.74923 0.441824 4.78019 -1.74924 3.97959 -3.44678 0.0326857 -26.8428 6.14248 -5.44328 -47.5409 43.3745 -4.09157 14.9148 -3.8331 -29.5516 9.64983 0.698807 -5.79681 -3.18055e-015 3.18055e-015 -6.36111e-015 -3.18055e-015 4.77083e-015 -4.77083e-015 22.9964 11.2031 19.2443 66.7914 37.9882 -15.9906 -18.6982 11.7882 6.63537 12.0031 -6.56332 3.94195 -1.59028e-015 -3.18055e-015 7.95139e-016 -3.18055e-015 -3.18056e-015 1.59028e-015 -4.03268 0.993888 2.02006 
32.0478 95.7518 -29.9641 0.984218 -2.81126 -3.7525 0.242695 2.37108 -1.01242 4.50862 2.31989 11.7924 0.21954 4.87575 2.27844 -0.469514 -3.68469 0.0155535 0.857182 -4.10245 -0.276823 -5.77153 -2.79244 0.987832 0.738202 12.149 0.116603 -4.97235 -9.99443 3.27215 2.31103 -7.86444 2.47199 0.527948 4.73527 -2.0375 0.527949 4.73545 -2.0375 4.29857 -3.26105 0.458021 -27.1265 6.08345 -5.61655 -49.1085 45.0258 -2.60758 15.5032 -2.2001 -27.8047 7.6503 0.832891 -5.09374 -3.18055e-015 4.77083e-015 -0 -3.18055e-015 3.18056e-015 -0 22.935 10.6696 18.1983 66.3499 35.5272 -16.104 -18.3872 13.6808 7.34294 9.84072 -6.47309 4.27763 7.95139e-016 -9.54166e-015 -7.95139e-016 7.95139e-016 -3.18056e-015 -7.95139e-016 -4.07046 0.54804 2.52447 
32.055 95.7361 -30.0424 0.899978 -2.83868 -4.00751 0.268179 2.36745 -1.16061 4.5246 2.24008 12.689 0.296593 5.13525 1.63286 -0.151178 -3.6689 0.0120545 0.953545 -4.35839 -0.292968 -5.73778 -2.8073 1.25671 0.728826 12.028 0.0938599 -4.89366 -9.98319 3.47978 2.31194 -7.86919 2.47715 0.589145 4.72873 -2.33539 0.586619 4.72863 -2.33539 4.52928 -3.13474 0.896995 -27.2524 6.02462 -5.58217 -50.864 46.1565 -0.877063 15.6228 -0.965658 -26.3317 6.52839 1.21084 -4.49235 -3.18055e-015 3.18055e-015 1.59028e-015 -3.18055e-015 4.77083e-015 1.59028e-015 22.9696 10.149 17.0248 65.5736 33.212 -15.8691 -18.9528 13.7448 8.61019 7.73368 -6.69896 4.32264 -7.95139e-016 0 -1.19271e-015 -7.95139e-016 -3.18056e-015 -1.19271e-015 -4.06602 0.225745 3.00599 
32.0705 95.7263 -30.1541 0.845756 -2.796 -4.45974 0.268738 2.36794 -1.2465 4.50974 2.1939 12.2733 0.208598 5.14052 2.37267 0.563115 -3.26036 0.00118837 1.15319 -4.83834 -0.417293 -5.67522 -3.13174 1.59674 0.701984 12.2524 0.161122 -4.89492 -9.98948 3.59998 2.32191 -7.8953 2.48407 0.588076 4.72937 -2.50702 0.59102 4.72943 -2.50719 4.72503 -2.66792 1.25929 -27.2348 5.66343 -5.78654 -52.8719 46.8238 1.15303 15.3527 -0.702707 -25.0985 5.99386 1.29948 -4.21276 -2.20695e-032 -1.59028e-015 -7.95139e-016 -0 -1.59028e-015 -0 22.8966 9.29696 15.9776 64.6527 31.0761 -15.2605 -20.0398 13.3184 10.2521 5.64902 -7.20678 4.70785 -1.98785e-016 -6.36111e-015 -1.19271e-015 -1.98785e-016 0 -8.94531e-016 -4.17247 -0.473779 3.43496 
32.0796 95.6985 -30.2056 0.780854 -2.9201 -5.03501 0.258308 2.42471 -1.29288 4.60437 2.17904 13.0263 0.175675 5.58207 2.23688 0.258389 -3.75219 0.00327016 0.989132 -4.59691 -0.264312 -5.61708 -3.37288 2.13472 0.724175 12.5584 0.18614 -4.9406 -10.0608 3.64672 2.32992 -7.92149 2.48408 0.573684 4.843 -2.59939 0.572862 4.84314 -2.59944 4.62304 -2.40911 1.68085 -27.0653 5.53579 -5.9883 -54.6249 47.1252 3.07225 14.8862 -0.92222 -23.8224 6.05739 1.18348 -4.52368 4.41391e-032 3.18055e-015 -7.95139e-016 -3.18055e-015 3.18056e-015 -7.95139e-016 22.9346 8.67917 15.12 63.7306 28.5649 -14.3834 -21.2951 12.1117 12.1776 2.31509 -7.27515 4.82563 7.95139e-016 0 3.97569e-016 0 0 -7.95139e-016 -4.15826 -0.82119 3.81466 
32.07 95.6855 -30.2409 0.515541 -2.98436 -5.36018 0.315544 2.47689 -1.34491 4.88211 2.05979 12.7824 -0.0074964 6.03774 2.83098 0.556545 -3.86375 6.96391e-005 1.11986 -4.78502 -0.362303 -5.37275 -3.36182 2.57928 0.694276 12.4148 0.213103 -4.98984 -9.90535 3.58013 2.34198 -7.94153 2.48119 0.691886 4.94553 -2.70844 0.690147 4.94542 -2.7083 4.21301 -2.321 2.20568 -26.734 5.6315 -6.2694 -56.0437 46.9722 4.74603 14.7046 -0.950368 -22.9054 5.801 1.10387 -4.0702 0 0 -7.95139e-016 3.18055e-015 0 -7.95139e-016 23.1196 8.1425 14.1073 62.7848 25.217 -13.3055 -22.8663 11.6835 14.4081 -1.80792 -7.1423 4.93409 7.95139e-016 -1.27222e-014 -1.59028e-015 -4.41391e-032 -3.18056e-015 -7.95139e-016 -4.10354 -0.824154 4.20519 
32.1225 95.6571 -30.2727 0.4334 -2.93008 -5.3459 0.337185 2.49364 -1.42474 5.02841 1.64683 13.2476 -0.00907874 6.804 2.5029 0.230576 -4.50298 0.00262593 0.96103 -4.53105 -0.224697 -5.32877 -3.4567 2.71854 0.680423 12.4266 0.232023 -5.01568 -9.8909 3.53108 2.37168 -8.04044 2.51764 0.744985 4.97794 -2.86823 0.74602 4.97795 -2.86824 3.80622 -2.24619 2.76819 -26.2625 5.74128 -6.61192 -57.6507 46.677 6.41079 14.727 -1.52935 -22.2936 5.10702 1.19218 -3.47362 3.18055e-015 6.36111e-015 7.95139e-016 3.18055e-015 6.36111e-015 -0 23.4477 7.69548 13.2827 62.0202 19.6806 -13.0092 -26.1979 10.9505 18.3966 -6.37312 -7.03908 4.60189 -1.59028e-015 -3.18055e-015 -3.18055e-015 -2.64834e-031 -3.18056e-015 -4.77083e-015 -4.13827 -0.629544 4.65768 
32.2301 95.5904 -30.2465 0.461167 -2.89777 -5.16906 0.337621 2.50219 -1.49132 5.07292 1.15064 15.6987 0.231661 7.75119 -0.121064 0.660002 -4.79536 0.00413595 1.08566 -4.73156 -0.301103 -5.41619 -3.61134 2.58123 0.673469 12.7587 0.235686 -5.02734 -10.1067 3.5474 2.393 -8.10688 2.54143 0.741442 4.99469 -3.00168 0.741444 4.99469 -3.00169 3.57467 -2.14728 3.32986 -25.8331 5.76862 -6.81561 -58.9078 45.2587 7.37524 14.7867 -1.76818 -21.9266 4.54561 1.42371 -2.91432 4.41391e-032 -3.18055e-015 7.95139e-016 -3.18055e-015 -9.54167e-015 7.95139e-016 23.684 7.25071 12.4767 61.1003 11.6308 -13.6407 -30.5885 9.56348 25.5796 -12.2695 -6.16275 3.15723 -4.77083e-015 -6.36111e-015 -0 -7.95139e-015 -9.54167e-015 -0 -4.34815 -0.314007 5.20098 
32.3153 95.6237 -30.1691 0.235758 -2.96973 -4.9769 0.380787 2.53188 -1.50636 5.38405 1.14889 12.0935 -0.479692 7.94864 3.57118 0.129808 -5.27232 0.0185166 0.859087 -4.17269 -0.206126 -5.23668 -3.22211 2.59533 0.599736 12.2263 0.246312 -5.11902 -9.77315 3.33338 2.44096 -8.25331 2.58979 0.829735 5.05279 -3.0367 0.82975 5.0528 -3.03742 3.24594 -1.68288 3.82376 -25.3966 5.41877 -7.06455 -59.6687 43.6724 8.11328 14.8669 -1.78964 -22.2181 4.43528 1.30631 -2.5403 6.36111e-015 3.18055e-015 -7.95139e-016 6.36111e-015 3.18056e-015 -7.95139e-016 23.7841 6.42488 11.7528 60.1968 4.224 -14.9522 -36.7568 9.78437 34.667 -18.5067 -6.92241 3.07049 3.18055e-015 1.59028e-015 3.18055e-015 4.77083e-015 0 6.36111e-015 -4.53358 -0.576161 5.64201 
32.4472 95.5852 -30.1063 -0.0100839 -3.08566 -4.68512 0.395414 2.56289 -1.48959 5.80107 0.657287 12.7389 -0.56768 9.28498 2.80668 -0.329532 -6.29815 0.0260256 0.588782 -3.66561 0.0109815 -5.02452 -2.98752 2.28245 0.443929 12.147 0.297094 -5.17 -9.68984 3.28338 2.48989 -8.41961 2.66477 0.85688 5.11454 -3.00151 0.856385 5.11455 -3.00126 3.0029 -1.09073 4.15456 -25.1909 4.88406 -7.16183 -59.8174 42.5252 8.7362 14.8728 -1.94158 -23.0407 4.87298 1.04658 -2.6577 0 3.18055e-015 -0 -6.36111e-015 0 1.59028e-015 23.2503 5.49302 11.2032 58.5737 -3.98238 -15.943 -43.7977 11.6252 45.848 -24.264 -7.52189 4.87953 -1.03368e-014 -5.56597e-015 3.18055e-015 -7.15625e-015 -3.18056e-015 3.18055e-015 -4.56383 -0.928527 5.91464 
32.5888 95.5291 -30.0653 -0.273476 -3.14255 -4.08259 0.380286 2.59186 -1.41748 6.29729 0.0750072 12.3872 -0.972079 10.3576 2.665 0.872519 -6.20929 0.02864 1.194 -4.23888 -0.604499 -4.68228 -2.78416 1.92286 0.186387 12.1354 0.337137 -5.30995 -9.58882 3.05604 2.53932 -8.5672 2.71138 0.830263 5.17341 -2.85663 0.82764 5.17341 -2.85653 2.92509 -0.663398 4.14409 -25.0918 4.45468 -7.23476 -59.6336 42.1356 9.19393 14.7865 -2.69125 -24.0669 5.35421 0.853687 -3.15659 0 3.18055e-015 -0 -3.18055e-015 6.36111e-015 1.59028e-015 22.6025 4.88564 10.9346 55.8144 -13.8924 -16.9072 -48.8354 12.2484 58.3637 -31.522 -7.19377 5.31064 -6.95746e-016 -1.68967e-015 -9.54166e-015 1.68967e-015 -4.57205e-015 -9.54166e-015 -4.48459 -1.28931 5.86222 
32.7558 95.4583 -29.9659 -0.690993 -3.52473 -3.21568 0.364561 2.69826 -1.27038 6.88951 -0.406081 12.9641 -1.04292 11.6917 1.18005 2.2395 -6.13666 0.0308755 1.85406 -4.97454 -1.21692 -4.20083 -2.17036 1.78962 0.030717 11.9673 0.50581 -5.63568 -9.33226 2.18097 2.59989 -8.78233 2.82026 0.788185 5.38778 -2.56227 0.790959 5.38791 -2.56228 3.19754 -0.478179 3.81468 -24.7312 4.19519 -7.43776 -59.8881 41.7396 9.30901 14.9858 -3.1604 -24.8262 5.95197 0.660673 -3.45166 -3.18055e-015 0 -0 -3.18055e-015 0 -0 21.9896 4.64032 10.7136 51.967 -24.5317 -18.1909 -52.1922 11.4415 71.0753 -37.4239 -6.67878 4.40483 -1.76556e-031 -1.59028e-015 -6.36111e-015 -1.59028e-015 -1.59028e-015 -6.36111e-015 -4.69385 -1.40405 5.67463 
33.0827 95.4346 -30.067 -0.624278 -3.32201 -2.356 0.255617 2.68044 -1.07414 6.97277 -1.31581 12.8799 -0.937068 12.7153 0.537479 1.18917 -7.22939 0.0450573 1.3421 -4.0819 -0.869586 -4.24087 -2.34652 1.76504 0.0947495 12.1158 0.431778 -5.95857 -9.13034 1.34804 2.65113 -8.95523 2.89997 0.562478 5.35556 -2.1638 0.56248 5.35558 -2.1638 3.76831 -0.400173 3.46702 -24.9149 4.11264 -7.70342 -59.3313 40.7118 8.88983 14.9425 -3.02756 -25.6354 6.47788 0.43411 -3.95144 -0 -6.36111e-015 -0 -6.36111e-015 -3.18056e-015 1.59028e-015 20.9976 4.5566 10.6298 47.432 -35.548 -19.6811 -53.2866 10.5355 83.0615 -40.4402 -6.52372 4.39272 1.76556e-031 -1.59028e-015 6.36111e-015 -3.18055e-015 -4.77083e-015 3.18055e-015 -5.23766 -1.33744 5.61948 
33.5076 95.4211 -30.3818 -0.481065 -2.78069 -1.97881 0.17436 2.65618 -0.827576 6.71839 -2.34831 12.3572 -1.06561 12.9927 0.72786 2.34501 -6.63645 0.0464339 1.87182 -4.64189 -1.37011 -4.56259 -3.23574 2.86858 0.608175 12.5181 0.116679 -6.35936 -8.78711 0.00645553 2.70291 -9.10191 2.93989 0.387801 5.30959 -1.66593 0.387802 5.30988 -1.66594 3.8471 -0.888423 3.29075 -24.711 4.6405 -8.03713 -59.1548 39.4025 8.62589 14.8362 -3.4656 -26.721 7.65557 0.28705 -4.32342 -6.36111e-015 0 3.18055e-015 -6.36111e-015 0 4.77083e-015 20.4868 5.17982 11.1039 43.7851 -42.1353 -20.4315 -52.478 7.56627 90.4252 -44.9713 -5.21224 3.754 3.18055e-015 3.18055e-015 -3.18055e-015 3.53113e-031 3.18056e-015 -6.36111e-015 -5.68682 -1.00512 5.55314 
